<svg width="512" height="512" viewBox="0 0 512 512" fill="none" xmlns="http://www.w3.org/2000/svg">
  <defs>
    <linearGradient id="bg" x1="82" y1="60" x2="422" y2="452" gradientUnits="userSpaceOnUse">
      <stop stop-color="#082C66"/>
      <stop offset="1" stop-color="#0E95D8"/>
    </linearGradient>
    <linearGradient id="duck" x1="140" y1="110" x2="366" y2="382" gradientUnits="userSpaceOnUse">
      <stop stop-color="#FFF7B1"/>
      <stop offset="1" stop-color="#FFB53D"/>
    </linearGradient>
  </defs>
  <rect x="20" y="20" width="472" height="472" rx="104" fill="url(#bg)"/>
  <path d="M154 258C154 201.667 199.667 156 256 156H300C354.124 156 398 199.876 398 254V286C398 348.408 347.408 399 285 399H224C185.34 399 154 367.66 154 329V258Z" fill="url(#duck)"/>
  <circle cx="282" cy="176" r="86" fill="url(#duck)"/>
  <path d="M320 196C338.46 176.121 368.833 174.784 388.968 192.949L404.95 207.37C416.771 218.034 415.812 236.869 402.943 246.283L390.625 255.292C358.791 278.571 314.171 270.996 291.597 238.105L282 224.125L320 196Z" fill="#FF8121"/>
  <circle cx="300" cy="176" r="13" fill="#1B3556"/>
  <path d="M202 290C202 281.716 208.716 275 217 275H331C339.284 275 346 281.716 346 290V350C346 358.284 339.284 365 331 365H217C208.716 365 202 358.284 202 350V290Z" fill="#0C4F97" fill-opacity="0.2"/>
  <path d="M219 294H329" stroke="white" stroke-width="12" stroke-linecap="round" stroke-opacity="0.92"/>
  <path d="M219 327H329" stroke="white" stroke-width="12" stroke-linecap="round" stroke-opacity="0.92"/>
  <path d="M252 280V359" stroke="#FFE17A" stroke-width="12" stroke-linecap="round"/>
  <path d="M296 280V359" stroke="#FFE17A" stroke-width="12" stroke-linecap="round"/>
  <path d="M236 116C255.533 98.4583 284.8 97.7021 305.213 114.214C312.111 119.792 317.125 127.336 319.59 135.805H229.965C230.673 128.283 232.798 121.149 236 116Z" fill="white" fill-opacity="0.92"/>
  <path d="M151 223C159.802 223 166.938 230.136 166.938 238.938V304.713C166.938 315.307 154.122 320.585 146.666 313.219C135.186 301.876 128 286.107 128 268.659V246C128 233.298 138.298 223 151 223Z" fill="white" fill-opacity="0.94"/>
  <ellipse cx="252" cy="425" rx="150" ry="24" fill="#082C66" fill-opacity="0.3"/>
</svg>
