<svg width="512" height="512" viewBox="0 0 512 512" fill="none" xmlns="http://www.w3.org/2000/svg">
  <defs>
    <linearGradient id="bg" x1="72" y1="64" x2="426" y2="448" gradientUnits="userSpaceOnUse">
      <stop stop-color="#123C98"/>
      <stop offset="1" stop-color="#39C0EC"/>
    </linearGradient>
    <radialGradient id="ring" cx="0" cy="0" r="1" gradientUnits="userSpaceOnUse" gradientTransform="translate(255 246) rotate(90) scale(194)">
      <stop stop-color="#A6EDFF"/>
      <stop offset="1" stop-color="#2F8DDF"/>
    </radialGradient>
    <linearGradient id="duck" x1="174" y1="114" x2="338" y2="356" gradientUnits="userSpaceOnUse">
      <stop stop-color="#FFF39E"/>
      <stop offset="0.55" stop-color="#FFD052"/>
      <stop offset="1" stop-color="#F99A30"/>
    </linearGradient>
    <linearGradient id="beak" x1="315" y1="186" x2="392" y2="226" gradientUnits="userSpaceOnUse">
      <stop stop-color="#FFB85A"/>
      <stop offset="1" stop-color="#FF6C18"/>
    </linearGradient>
  </defs>
  <rect x="20" y="20" width="472" height="472" rx="118" fill="url(#bg)"/>
  <circle cx="256" cy="256" r="172" fill="#0D2F75" fill-opacity="0.2"/>
  <circle cx="256" cy="256" r="156" stroke="url(#ring)" stroke-width="26"/>
  <circle cx="288" cy="178" r="82" fill="url(#duck)"/>
  <path d="M324 191C342.756 171.867 372.618 170.612 392.912 188.112L404.804 198.367C417.452 209.274 416.024 229.377 401.886 238.392L388.874 246.688C357.09 266.951 314.723 258.903 292.59 227.897L288 221.469L324 191Z" fill="url(#beak)"/>
  <path d="M164 252C164 208.922 198.922 174 242 174H288C341.019 174 384 216.981 384 270V286C384 345.094 336.094 393 277 393H224C190.863 393 164 366.137 164 333V252Z" fill="url(#duck)"/>
  <rect x="182" y="276" width="154" height="28" rx="14" fill="#FFB02F"/>
  <rect x="204" y="318" width="128" height="24" rx="12" fill="#FFCF64"/>
  <path d="M193 290H327" stroke="white" stroke-width="8" stroke-linecap="round" stroke-opacity="0.78"/>
  <path d="M214 330H323" stroke="#F0971E" stroke-width="6" stroke-linecap="round" stroke-opacity="0.72"/>
  <path d="M148 302C165.879 281.31 192.311 268 221.852 268C275.99 268 319.884 312.149 319.884 366.618C319.884 374.328 319.004 381.831 317.337 389.032L188.095 389.032C168.983 389.032 152.188 376.283 146.678 357.983L139 332L148 302Z" fill="#F59A1F" fill-opacity="0.56"/>
  <circle cx="302" cy="174" r="13" fill="#20304D"/>
  <path d="M250 123C268.659 106.341 296.699 105.135 316.722 120.131C323.88 125.489 329.2 132.974 332.008 141.5H243.5C243.953 134.46 246.25 128.034 250 123Z" fill="white" fill-opacity="0.9"/>
  <path d="M202 122C193.405 139.754 189 159.227 189 179.357C189 195.944 177.299 210.227 161 211.189C143.066 212.247 128 197.991 128 180.354V172.967C128 139.741 154.939 112.8 188.165 112.8H194L202 122Z" fill="#8FE3FF" fill-opacity="0.32"/>
</svg>
