<svg width="24" height="24" viewBox="4.4 4.9 16.9 16.9" xmlns="http://www.w3.org/2000/svg">
  <g fill="none" stroke="#ffffff" stroke-linecap="round" stroke-linejoin="round">
    <path d="M7.75 10.75C7.75 8.40279 9.65279 6.5 12 6.5H13.25C15.8734 6.5 18 8.62665 18 11.25V14.25C18 17.4256 15.4256 20 12.25 20H10.75C9.09315 20 7.75 18.6569 7.75 17V10.75Z" stroke-width="1.6"/>
    <path d="M18 11.35L20.1 12.55L18 13.75" stroke-width="1.3"/>
    <path d="M7.15 11.85C6.15 12.25 5.5 13.15 5.5 14.2C5.5 15.55 6.58 16.64 7.92 16.64" stroke-width="1.6"/>
    <circle cx="13.85" cy="8.95" r="0.92" fill="#ffffff" stroke="none"/>
    <path d="M9.2 13.3H15.35" stroke-width="1.45"/>
    <path d="M9.2 15.7H15.35" stroke-width="1.45"/>
    <path d="M11.5 12.45V16.55" stroke-width="1.45"/>
    <path d="M13.85 12.45V16.55" stroke-width="1.45"/>
  </g>
</svg>
