<svg width="256" height="180" viewBox="0 0 256 180" xmlns="http://www.w3.org/2000/svg" fill="none">
  <path fill="#F51515" d="M32 108A96 96 0 0 1 224 108H210A82 82 0 0 0 46 108H32Z" />
  <path fill="#F1DF00" d="M56 108A72 72 0 0 1 200 108H186A58 58 0 0 0 70 108H56Z" />
  <path fill="#10A43A" d="M74 108A54 54 0 0 1 182 108H168A40 40 0 0 0 88 108H74Z" />
  <path fill="#1097E2" d="M95 108A33 33 0 0 1 161 108H148A20 20 0 0 0 108 108H95Z" />
  <path fill="#4A57B8" d="M109 108A19 19 0 0 1 147 108H136A8 8 0 0 0 120 108H109Z" />
  <text
    x="128"
    y="156"
    fill="#1B1B1B"
    font-family="Georgia, 'Times New Roman', serif"
    font-size="38"
    letter-spacing="2"
    text-anchor="middle"
  >Shelf AI</text>
</svg>
